<svg xmlns="http://www.w3.org/2000/svg" width="894" height="180" viewBox="0 0 894 180" role="img" aria-label="github pet: zoomies">
<title>github pet - zoomies</title>
<rect width="894" height="180" fill="#0d1117"/>
<line x1="0" y1="150" x2="894" y2="150" stroke="#30363d" stroke-width="2" stroke-dasharray="8 8"/>
<g><animateTransform attributeName="transform" type="translate" from="-140 0" to="1034 0" dur="6s" repeatCount="indefinite"/>
<g><animateTransform attributeName="transform" type="translate" values="0 0;0 -3;0 0" dur="0.4s" repeatCount="indefinite"/>
<rect x="60" y="72" width="6" height="6" fill="#e6edf3"/>
<rect x="90" y="72" width="6" height="6" fill="#e6edf3"/>
<rect x="60" y="78" width="12" height="6" fill="#e6edf3"/>
<rect x="84" y="78" width="12" height="6" fill="#e6edf3"/>
<rect x="54" y="84" width="48" height="6" fill="#e6edf3"/>
<rect x="54" y="90" width="48" height="6" fill="#e6edf3"/>
<rect x="54" y="96" width="36" height="6" fill="#e6edf3"/>
<rect x="90" y="96" width="6" height="6" fill="#ff9bce"/>
<rect x="96" y="96" width="6" height="6" fill="#e6edf3"/>
<rect x="54" y="102" width="48" height="6" fill="#e6edf3"/>
<rect x="12" y="108" width="6" height="6" fill="#e6edf3"/>
<rect x="54" y="108" width="48" height="6" fill="#e6edf3"/>
<rect x="12" y="114" width="12" height="6" fill="#e6edf3"/>
<rect x="36" y="114" width="60" height="6" fill="#e6edf3"/>
<rect x="12" y="120" width="84" height="6" fill="#e6edf3"/>
<rect x="12" y="126" width="84" height="6" fill="#e6edf3"/>
<rect x="18" y="132" width="72" height="6" fill="#e6edf3"/>
<g><animate attributeName="opacity" values="1;0;1" keyTimes="0;0.5;1" calcMode="discrete" dur="0.8s" repeatCount="indefinite"/><rect x="24" y="138" width="12" height="6" fill="#e6edf3"/><rect x="84" y="138" width="12" height="6" fill="#e6edf3"/><rect x="24" y="144" width="12" height="6" fill="#e6edf3"/><rect x="84" y="144" width="12" height="6" fill="#e6edf3"/></g>
<g opacity="0"><animate attributeName="opacity" values="0;1;0" keyTimes="0;0.5;1" calcMode="discrete" dur="0.8s" repeatCount="indefinite"/><rect x="30" y="138" width="12" height="6" fill="#e6edf3"/><rect x="78" y="138" width="12" height="6" fill="#e6edf3"/><rect x="30" y="144" width="12" height="6" fill="#e6edf3"/><rect x="78" y="144" width="12" height="6" fill="#e6edf3"/></g>
<g><animate attributeName="opacity" values="1;0;1" keyTimes="0;0.97;1" calcMode="discrete" dur="4.5s" repeatCount="indefinite"/><rect x="60" y="90" width="6" height="6" fill="#58a6ff"/><rect x="84" y="90" width="6" height="6" fill="#58a6ff"/></g>
<g opacity="0"><animate attributeName="opacity" values="0;1;0" keyTimes="0;0.97;1" calcMode="discrete" dur="4.5s" repeatCount="indefinite"/><rect x="60" y="90" width="12" height="6" fill="#0d1117"/><rect x="84" y="90" width="12" height="6" fill="#0d1117"/></g>
</g></g>
<text x="16" y="170" font-family="monospace" font-size="12" fill="#8b949e">state: zoomies - 3 pushes today · regenerated every 6h</text>
</svg>